<svg id="Layer_2" data-name="Layer 2" xmlns="http://www.w3.org/2000/svg" viewBox="0 0 788 788"><defs><style>.cls-1{stroke:#000;stroke-miterlimit:10;stroke-width:20px;}</style></defs><title>Enarc Labs Logo</title><path d="M729,328s-11,19-12,22c-5.72,17.16-7,15-7,45,0,0-18,56-80,56s-86-57-87-89,14-73,72-89v-7H582l4-31,18-134h71l19.5,166.5h-27l-1,5-7,1s5,23-24,46a23.19,23.19,0,0,0-19,4c-17.38,13.27-33,64,19,72,0,0,26,7,43-41,0,0,28-37,42-41S729,328,729,328Z"/><path class="cls-1" d="M174,350H108v61h73v19H86V261h91v18H108v53h66Z"/><path class="cls-1" d="M208,340.75c0-12.5-.25-22.75-1-32.75h19.75L228,328h.25c6-11.5,20-22.75,40-22.75,16.75,0,42.75,10,42.75,51.5V429H289V359.25c0-19.5-7.25-35.75-28-35.75-14.5,0-25.75,10.25-29.5,22.5a31.63,31.63,0,0,0-1.5,10.25V429H208Z"/><path class="cls-1" d="M413.79,429,412,414h-.76c-6.83,9.34-20,17.7-37.43,17.7-24.78,0-37.43-17-37.43-34.18,0-28.77,26.3-44.51,73.59-44.26V350.8c0-9.84-2.78-27.54-27.82-27.54-11.38,0-23.26,3.44-31.86,8.85l-5.06-14.26c10.11-6.39,24.78-10.57,40.21-10.57C422.9,307.28,432,332.11,432,356v44.51c0,10.33.51,20.41,2,28.52ZM411,367.75c-24-.5-51.25,3.75-51.25,27.25,0,14.25,9.5,21,20.75,21,15.75,0,25.75-10,29.25-20.25a23,23,0,0,0,1.25-7Z"/><path class="cls-1" d="M467,345.75c0-14.25-.25-26.5-1-37.75H485.5l.75,24h1c5.5-16.42,18.75-26.78,33.5-26.78A23.56,23.56,0,0,1,527,306v21a32.72,32.72,0,0,0-7.5-.76c-15.5,0-26.5,11.87-29.5,28.55a63.21,63.21,0,0,0-1,10.36V429H467Z"/><path class="cls-1" d="M153,525h21.75V675.25h72V693.5H153Z"/><path class="cls-1" d="M337.25,693.5l-1.75-15.25h-.75c-6.75,9.5-19.75,18-37,18-24.5,0-37-17.25-37-34.75,0-29.25,26-45.25,72.75-45V614c0-10-2.75-28-27.5-28a60.29,60.29,0,0,0-31.5,9l-5-14.5c10-6.5,24.5-10.75,39.75-10.75,37,0,46,25.25,46,49.5V664.5c0,10.5.5,20.75,2,29ZM334,631.75c-24-.5-51.25,3.75-51.25,27.25,0,14.25,9.5,21,20.75,21,15.75,0,25.75-10,29.25-20.25a23,23,0,0,0,1.25-7Z"/><path class="cls-1" d="M389.74,693.5c.5-8.25,1-20.5,1-31.25V516h21.75v76h.5c7.75-13.5,21.75-22.25,41.25-22.25,30,0,51.25,25,51,61.75,0,43.25-27.25,64.75-54.25,64.75-17.5,0-31.5-6.75-40.5-22.75h-.75l-1,20ZM412.49,645a41.19,41.19,0,0,0,1,8c4.25,15.25,17,25.75,33,25.75,23,0,36.75-18.75,36.75-46.5,0-24.25-12.5-45-36-45-15,0-29,10.25-33.5,27a43.36,43.36,0,0,0-1.25,9Z"/><path class="cls-1" d="M530,671c6.5,4.25,18,8.75,29,8.75,16,0,23.5-8,23.5-18,0-10.5-6.25-16.25-22.5-22.25-21.75-7.75-32-19.75-32-34.25,0-19.5,15.75-35.5,41.75-35.5,12.25,0,23,3.5,29.75,7.5l-5.5,16a47.09,47.09,0,0,0-24.75-7c-13,0-20.25,7.5-20.25,16.5,0,10,7.25,14.5,23,20.5,21,8,31.75,18.5,31.75,36.5,0,21.25-16.5,36.25-45.25,36.25-13.25,0-25.5-3.25-34-8.25Z"/></svg>